<?xml version="1.0" encoding="UTF-8" standalone="no"?>
<!DOCTYPE svg PUBLIC "-//W3C//DTD SVG 1.1//EN" "http://www.w3.org/Graphics/SVG/1.1/DTD/svg11.dtd">
<svg xmlns="http://www.w3.org/2000/svg" xmlns:serif="http://www.serif.com/" xmlns:xlink="http://www.w3.org/1999/xlink" width="100%" height="100%" style="fill-rule:evenodd;clip-rule:evenodd;stroke-linecap:round;stroke-linejoin:round;stroke-miterlimit:1.5" version="1.1" viewBox="0 0 500 500" xml:space="preserve">
    <g>
        <path d="M125.184,205.986c15.053,0 244.487,0 251.954,0c0.001,0 0.001,0 0.001,0c5.85,0 11.361,2.743 14.888,7.408c3.528,4.666 4.664,10.716 3.07,16.344c-14.748,52.063 -49.763,175.669 -64.288,226.943c-3.838,13.549 -16.208,22.902 -30.29,22.902c-28.979,0 -77.66,0 -106.876,0c-14.33,0 -26.851,-9.678 -30.464,-23.545c-13.246,-50.835 -44.441,-170.564 -58.305,-223.772c-1.638,-6.29 -0.271,-12.983 3.704,-18.126c3.974,-5.143 10.107,-8.154 16.606,-8.154Z" style="fill:none;stroke:#fcfcfb;stroke-width:25.87px"/>
        <path d="M153.313,228.157c11.619,0 188.721,0 194.485,0c0,0 0.001,0 0.001,0c4.515,0 8.769,2.298 11.492,6.208c2.723,3.909 3.6,8.979 2.37,13.695c-11.385,43.625 -38.413,147.198 -49.625,190.162c-2.963,11.353 -12.511,19.189 -23.381,19.189c-22.369,0 -59.946,0 -82.498,0c-11.061,0 -20.727,-8.108 -23.516,-19.728c-10.224,-42.596 -34.304,-142.92 -45.006,-187.505c-1.265,-5.27 -0.209,-10.879 2.859,-15.188c3.068,-4.309 7.802,-6.833 12.819,-6.833Z" id="test" style="fill:url(#_Linear1)" />
        <path d="M104.305,170.147c-6.712,-200.592 297.746,-198.685 290.697,0" style="fill:none;stroke:#fcfcfb;stroke-width:25.07px"/>
    </g>
    <defs>
        <linearGradient id="_Linear1" x1="0" x2="1" y1="0" y2="0" gradientTransform="matrix(1.49619e-14,-244.347,211.191,1.29317e-14,250,457.411)" gradientUnits="userSpaceOnUse">
            <stop id="stop_1" offset="0" style="stop-color:#8A2387;stop-opacity:1"/>
            <stop id="stop_2" offset="0.5" style="stop-color:#E94057;stop-opacity:1"/>
            <stop id="stop_3" offset="1" style="stop-color:#f27121;stop-opacity:1"/>
        </linearGradient>
    </defs>
    <style>
        #stop_1 {
            animation: Stop1Shift 5s ease-in-out infinite alternate;
        }
        #stop_2 {
            animation: Stop2Shift 5s ease-in-out infinite alternate;
        }
        #stop_3 {
            animation: Stop3Shift 5s ease-in-out infinite alternate;
        }
        @keyframes Stop1Shift {
            0%{stop-color: #8A2387;}
            50%{stop-color: #E94057;}
            100%{stop-color: #f27121;}
        }
        @keyframes Stop2Shift {
            0%{stop-color: #f27121;}
            50%{stop-color: #8A2387}
            100%{stop-color: #E94057;}
        }
        @keyframes Stop3Shift {
            0%{stop-color: #E94057;}
            50%{stop-color: #f27121;}
            100%{stop-color: #8A2387;}
        }
    </style>
</svg>
